<svg width="86" height="86" viewBox="0 0 86 86" fill="none" xmlns="http://www.w3.org/2000/svg">
<g clip-path="url(#clip0_9_109)">
<path d="M49.7665 47.8111V14.0456C49.7665 6.74008 43.8445 0.815796 36.5364 0.815796C29.2283 0.815796 23.3066 6.74008 23.3066 14.0456V47.8108C18.4725 51.69 15.3687 57.6381 15.3687 64.3191C15.3687 76.0091 24.8467 85.4868 36.5364 85.4868C48.2262 85.4868 57.7042 76.0088 57.7042 64.3191C57.7042 57.6406 54.6009 51.69 49.7665 47.8111Z" fill="#E4E7E7"/>
<path d="M57.7042 19.3374H68.2882C69.7514 19.3374 70.9343 18.1546 70.9343 16.6914C70.9343 15.2282 69.7514 14.0453 68.2882 14.0453H57.7042C56.241 14.0453 55.0581 15.2282 55.0581 16.6914C55.0581 18.1546 56.241 19.3374 57.7042 19.3374ZM68.2882 24.6296H57.7042C56.241 24.6296 55.0581 25.815 55.0581 27.2757C55.0581 28.7389 56.241 29.9217 57.7042 29.9217H68.2882C69.7514 29.9217 70.9343 28.7389 70.9343 27.2757C70.934 25.8176 69.7517 24.6296 68.2882 24.6296ZM68.2882 35.2133H57.7042C56.241 35.2133 55.0581 36.3988 55.0581 37.8594C55.0581 39.3226 56.241 40.5055 57.7042 40.5055H68.2882C69.7514 40.5055 70.9343 39.3226 70.9343 37.8594C70.934 36.4016 69.7517 35.2133 68.2882 35.2133Z" fill="#E4E7E7"/>
<path d="M44.4745 50.5866V14.0456C44.4745 9.66111 40.9182 6.10767 36.5365 6.10767C32.1549 6.10767 28.5986 9.66139 28.5986 14.0456V50.5866C23.8597 53.333 20.6606 58.4476 20.6606 64.3191C20.6606 73.0853 27.7703 80.195 36.5365 80.195C45.3027 80.195 52.4124 73.0853 52.4124 64.3191C52.4124 58.4476 49.2162 53.333 44.4745 50.5866Z" fill="#CB4E44"/>
<path d="M44.4745 50.5866V14.0456C44.4745 9.66111 40.9182 6.10767 36.5365 6.10767C32.1549 6.10767 28.5986 9.66139 28.5986 14.0456V50.5866C23.8597 53.333 20.6606 58.4476 20.6606 64.3191C20.6606 73.0853 27.7703 80.195 36.5365 80.195C45.3027 80.195 52.4124 73.0853 52.4124 64.3191C52.4124 58.4476 49.2162 53.333 44.4745 50.5866ZM36.5365 76.2261C29.9719 76.2261 24.6298 70.884 24.6298 64.3194C24.6298 60.0965 26.9133 56.1486 30.5885 54.0185L32.5677 52.8729V14.0456C32.5677 11.8573 34.3485 10.0768 36.5365 10.0768C38.7246 10.0768 40.5054 11.8576 40.5054 14.0456V52.8726L42.4846 54.021C46.1598 56.1511 48.4433 60.0962 48.4433 64.3219C48.4433 70.8865 43.1011 76.2261 36.5365 76.2261Z" fill="white"/>
</g>
<defs>
<clipPath id="clip0_9_109">
<rect width="84.6711" height="84.6711" fill="white" transform="translate(0.815918 0.815796)"/>
</clipPath>
</defs>
</svg>
